<svg baseProfile="full" fill="rgb(0, 0, 0)" height="50" version="1.1" viewBox="0 0 153 50" width="153" xmlns="http://www.w3.org/2000/svg"><g><path d="M28.5 31.214285714285715V38.0H21.605714285714285Q16.774285714285714 38.0 13.137142857142857 36.37142857142857Q9.5 34.74285714285714 7.0842857142857145 32.05571428571429Q4.668571428571428 29.36857142857143 3.474285714285714 25.975714285714286Q2.28 22.582857142857144 2.28 19.0Q2.28 15.417142857142856 3.474285714285714 12.024285714285714Q4.668571428571428 8.631428571428572 7.0842857142857145 5.944285714285716Q9.5 3.25714285714286 13.137142857142857 1.62857142857143Q16.774285714285714 0.0 21.605714285714285 0.0H29.857142857142858V6.785714285714288L23.83142857142857 6.731428571428573Q20.357142857142858 6.731428571428573 17.751428571428573 7.762857142857143Q15.145714285714286 8.794285714285714 13.408571428571427 10.531428571428572Q11.67142857142857 12.26857142857143 10.802857142857142 14.494285714285715Q9.934285714285714 16.72 9.934285714285714 19.027142857142856Q9.934285714285714 21.334285714285716 10.802857142857142 23.560000000000002Q11.67142857142857 25.785714285714285 13.408571428571427 27.495714285714286Q15.145714285714286 29.205714285714286 17.751428571428573 30.264285714285712Q20.357142857142858 31.322857142857142 23.83142857142857 31.268571428571427ZM37.51142857142857 15.742857142857144V29.802857142857142H30.50857142857143V22.25714285714286H22.419999999999998V15.742857142857144Z M69.59428571428572 38.0H43.59142857142857V0.0H50.92V31.485714285714288H69.59428571428572Z M109.27714285714286 38.0H100.7L90.11428571428571 14.114285714285714L79.52857142857144 38.0H71.00571428571429L89.13714285714286 0.0H91.14571428571429Z M113.83714285714285 0.10857142857143032 121.16571428571427 4.234285714285718V38.0H113.83714285714285ZM154.3342857142857 0.10857142857143032V38.0H147.00571428571428V4.234285714285718ZM130.44857142857143 38.0V9.5H137.72285714285715V38.0Z " transform="translate(-2.28, 0)" /></g></svg>